<?xml version="1.0" standalone="no"?>
<!DOCTYPE svg PUBLIC "-//W3C//DTD SVG 20010904//EN"
 "http://www.w3.org/TR/2001/REC-SVG-20010904/DTD/svg10.dtd">
<svg version="1.0" xmlns="http://www.w3.org/2000/svg"
 width="239.000000pt" height="211.000000pt" viewBox="0 0 239.000000 211.000000"
 preserveAspectRatio="xMidYMid meet">

<g transform="translate(0.000000,211.000000) scale(0.100000,-0.100000)"
fill="#000000" stroke="none">
<path d="M985 2091 c44 -11 387 -12 410 -1 12 5 -68 8 -210 8 -126 0 -216 -4
-200 -7z"/>
<path d="M615 1970 c-4 -7 190 -10 575 -10 385 0 579 3 575 10 -4 6 -207 10
-575 10 -368 0 -571 -4 -575 -10z"/>
<path d="M847 1903 c189 -2 497 -2 685 0 189 1 35 2 -342 2 -377 0 -531 -1
-343 -2z"/>
<path d="M803 1843 c213 -2 561 -2 775 0 213 1 38 2 -388 2 -426 0 -601 -1
-387 -2z"/>
<path d="M768 1783 c233 -2 611 -2 840 0 229 1 39 2 -423 2 -462 0 -650 -1
-417 -2z"/>
<path d="M727 1723 c248 -2 658 -2 910 0 252 1 49 2 -452 2 -501 0 -707 -1
-458 -2z"/>
<path d="M712 1663 c263 -2 693 -2 955 0 263 1 48 2 -477 2 -525 0 -740 -1
-478 -2z"/>
<path d="M555 1625 c-29 -7 -116 -14 -210 -16 -122 -2 -136 -4 -60 -6 55 -2
111 -5 124 -9 22 -5 22 -6 -15 -26 -27 -14 -56 -21 -94 -20 -51 0 -52 0 -17
-7 48 -10 51 -14 27 -36 -15 -14 -35 -17 -105 -16 -47 1 -85 -3 -85 -8 0 -5
26 -7 58 -4 72 5 94 -7 68 -36 -16 -17 -33 -21 -90 -23 l-71 -2 68 -3 c37 -2
67 -6 67 -9 0 -3 -5 -14 -10 -25 -9 -15 -23 -19 -73 -21 l-62 -2 58 -3 c60 -4
65 -8 45 -36 -9 -11 -32 -17 -73 -20 l-60 -3 64 -2 c53 -2 62 -5 57 -18 -3 -9
-6 -20 -6 -24 0 -5 -28 -11 -62 -13 l-63 -3 63 -2 c59 -2 62 -3 62 -27 0 -23
-3 -24 -73 -28 l-72 -3 73 -2 c69 -2 72 -3 72 -27 0 -23 -3 -24 -73 -28 l-72
-3 73 -2 c70 -2 72 -3 72 -27 0 -24 -2 -25 -77 -25 -42 0 -73 -3 -69 -7 3 -4
39 -7 78 -7 58 -1 73 -4 82 -20 8 -14 8 -20 -2 -23 -10 -4 -8 -9 7 -20 12 -8
21 -21 21 -29 0 -11 -18 -14 -85 -14 -50 0 -85 -4 -85 -10 0 -6 38 -10 95 -10
81 0 96 -3 104 -18 7 -13 6 -23 -1 -30 -9 -9 -7 -12 8 -12 23 0 44 -18 44 -37
0 -9 -32 -13 -122 -16 l-123 -3 141 -2 c122 -2 143 -4 157 -20 10 -10 17 -21
17 -25 0 -4 -66 -8 -147 -10 l-148 -3 169 -2 c130 -1 182 -6 223 -19 29 -10
53 -21 53 -25 0 -4 -96 -9 -212 -11 -117 -1 286 -2 897 -2 611 0 792 1 403 2
-390 2 -708 6 -708 11 0 4 26 15 58 25 77 23 302 25 302 2 0 -22 623 -22 696
0 33 10 103 16 214 17 l165 2 -132 3 c-73 2 -133 7 -133 11 0 4 13 15 29 25
22 13 56 17 143 19 l113 2 -95 3 c-52 2 -99 8 -104 13 -15 15 14 40 48 41 23
1 25 3 9 6 -16 3 -23 11 -23 29 0 24 1 24 91 24 57 0 88 4 84 10 -3 5 -42 10
-86 10 -69 0 -79 2 -79 18 0 10 5 23 12 30 8 8 8 12 1 12 -16 0 -25 32 -11 41
7 4 49 5 95 2 59 -4 83 -3 83 6 0 7 -30 11 -95 11 -84 0 -95 2 -105 20 -14 27
-7 29 105 33 88 3 87 3 -24 5 -95 2 -116 5 -127 20 -7 9 -14 20 -14 24 0 4 57
9 128 11 l127 3 -145 2 c-111 1 -155 6 -187 20 -24 9 -43 20 -43 25 0 4 82 8
183 9 l182 2 -152 3 c-84 2 -153 6 -153 9 0 3 10 14 23 25 18 15 42 19 147 21
l125 2 -112 3 c-62 2 -113 8 -113 13 0 35 13 40 104 42 l91 2 -85 5 c-79 6
-85 8 -88 29 -3 21 0 22 75 24 l78 2 -74 5 c-54 4 -77 10 -85 23 -15 25 -1 32
65 33 32 0 59 3 59 7 0 5 -33 8 -74 8 -58 0 -75 3 -80 16 -10 25 3 36 39 32
19 -1 37 1 42 5 4 5 -20 7 -54 6 -47 -2 -68 2 -94 19 -33 21 -33 21 -9 26 14
3 57 7 95 9 39 2 12 4 -60 5 -74 1 -162 9 -205 18 -63 14 -111 15 -295 9 -303
-10 -292 -9 -301 -17 -11 -12 -354 -9 -394 2 -59 17 -249 21 -305 5z m696 -48
c4 -5 31 -12 60 -17 43 -6 25 -8 -83 -9 -131 -1 -138 0 -138 19 0 16 8 19 58
22 64 3 94 -1 103 -15z m-364 -66 l38 -20 -197 -1 c-109 0 -198 2 -198 5 0 3
18 14 40 23 60 25 264 21 317 -7z m509 15 c8 -3 14 -12 14 -21 0 -13 -23 -15
-160 -15 -148 0 -160 1 -160 18 0 10 2 21 4 23 6 6 286 1 302 -5z m452 -8 c43
-22 21 -28 -103 -28 -117 0 -125 1 -125 20 0 17 8 19 73 22 87 4 125 0 155
-14z m-882 -62 c8 -8 14 -17 14 -20 0 -3 -115 -6 -255 -6 -140 0 -255 4 -255
8 0 28 30 32 253 32 185 0 231 -3 243 -14z m454 -6 c0 -19 -7 -20 -165 -20
-158 0 -165 1 -165 20 0 19 7 20 165 20 158 0 165 -1 165 -20z m484 4 c3 -9 6
-18 6 -20 0 -2 -65 -4 -145 -4 -138 0 -145 1 -145 20 0 19 7 20 139 20 117 0
140 -2 145 -16z m-897 -60 c3 -9 0 -20 -8 -25 -15 -10 -538 -13 -563 -3 -12 5
-13 10 -5 25 9 18 25 19 290 19 247 0 280 -2 286 -16z m410 0 c3 -9 0 -19 -6
-24 -16 -9 -281 -13 -304 -4 -9 3 -17 15 -17 25 0 18 10 19 160 19 138 0 161
-2 167 -16z m493 -3 c0 -10 -6 -21 -12 -24 -7 -2 -71 -4 -143 -3 -127 1 -130
2 -133 24 -3 22 -3 22 142 22 137 0 146 -1 146 -19z m-863 -50 c19 -5 35 -5
40 0 5 5 80 8 169 7 151 -3 159 -4 159 -23 0 -20 -8 -20 -507 -23 -308 -1
-508 1 -508 7 0 41 -2 41 314 41 165 0 315 -4 333 -9z m863 1 c0 -5 -8 -16
-19 -26 -15 -14 -37 -16 -142 -14 -120 3 -124 4 -127 26 -3 22 -3 22 142 22
80 0 146 -4 146 -8z m-495 -77 c0 -20 -8 -20 -509 -23 -281 -1 -514 2 -518 6
-5 5 -6 16 -2 25 6 16 47 17 518 15 503 -3 511 -3 511 -23z m435 15 c0 -5 -2
-10 -4 -10 -2 0 -28 -5 -57 -10 -68 -14 -169 -4 -169 16 0 11 23 14 115 14 70
0 115 -4 115 -10z m-435 -75 c0 -20 -8 -20 -514 -23 -283 -1 -519 2 -523 6 -5
5 -6 16 -2 25 6 16 47 17 523 15 508 -3 516 -3 516 -23z m0 -60 c0 -19 -8 -20
-109 -23 -90 -2 -111 0 -118 13 -13 22 -476 23 -484 0 -5 -12 -33 -15 -164
-15 -160 0 -185 5 -160 36 11 12 85 14 524 12 503 -3 511 -3 511 -23z m438 5
c15 -7 27 -17 27 -22 0 -4 -58 -8 -130 -8 l-130 0 0 26 0 26 103 -4 c56 -3
114 -11 130 -18z m-1089 -59 c140 -22 98 -31 -141 -31 -233 0 -252 3 -239 36
5 13 29 14 158 11 84 -3 184 -9 222 -16z m640 13 c9 -3 16 -15 16 -25 0 -18
-10 -19 -157 -19 -161 0 -176 5 -98 33 40 15 210 22 239 11z m524 -21 l14 -23
-161 0 c-149 0 -161 1 -161 18 0 10 3 22 7 26 4 3 70 5 146 4 132 -3 140 -4
155 -25z m-1047 -55 c4 -7 5 -16 3 -20 -5 -8 -484 -12 -484 -4 0 2 -3 11 -6
20 -5 14 14 16 158 18 228 4 321 0 329 -14z m537 -5 c-3 -16 -20 -18 -166 -21
-157 -2 -162 -2 -162 18 0 19 6 20 166 20 152 0 165 -1 162 -17z m536 1 c3 -9
6 -18 6 -20 0 -2 -76 -4 -170 -4 -163 0 -170 1 -170 20 0 19 7 20 164 20 140
0 165 -2 170 -16z m-1064 -64 c0 -20 -5 -20 -232 -18 -212 3 -233 5 -236 21
-3 16 13 17 232 17 230 0 236 -1 236 -20z m528 -2 c3 -17 -10 -18 -162 -18
-160 0 -166 1 -166 20 0 20 5 20 162 18 146 -3 163 -5 166 -20z m542 2 c0 -19
-7 -20 -170 -20 -163 0 -170 1 -170 20 0 19 7 20 170 20 163 0 170 -1 170 -20z
m-1070 -59 c0 -10 -7 -22 -16 -25 -26 -10 -374 -7 -393 4 -10 5 -21 16 -25 25
-5 13 21 15 214 15 209 0 220 -1 220 -19z m530 0 c0 -10 -6 -21 -13 -24 -20
-7 -281 -9 -300 -1 -9 3 -17 15 -17 25 0 18 10 19 165 19 155 0 165 -1 165
-19z m530 10 c0 -5 -7 -17 -17 -26 -14 -14 -37 -16 -152 -14 -75 1 -142 4
-148 7 -7 2 -13 13 -13 23 0 18 10 19 165 19 95 0 165 -4 165 -9z m-1063 -67
c10 -28 -18 -34 -170 -34 -113 0 -155 4 -177 15 -17 9 -30 20 -30 25 0 6 72
10 185 10 161 0 186 -2 192 -16z m523 -4 c0 -27 -22 -30 -180 -27 -132 2 -135
3 -138 25 l-3 22 160 0 c154 0 161 -1 161 -20z m500 11 c0 -38 -211 -58 -258
-25 -12 8 -22 19 -22 25 0 5 59 9 140 9 77 0 140 -4 140 -9z m-1060 -60 c0
-19 -123 -28 -202 -15 -75 13 -36 24 82 24 66 0 120 -4 120 -9z m513 -2 c-22
-22 -323 -53 -323 -32 0 4 12 15 28 25 21 13 55 16 167 17 98 1 136 -2 128
-10z"/>
<path d="M173 1543 c15 -2 37 -2 50 0 12 2 0 4 -28 4 -27 0 -38 -2 -22 -4z"/>
<path d="M2198 1543 c7 -3 16 -2 19 1 4 3 -2 6 -13 5 -11 0 -14 -3 -6 -6z"/>
<path d="M88 863 c12 -2 32 -2 45 0 12 2 2 4 -23 4 -25 0 -35 -2 -22 -4z"/>
<path d="M2243 863 c15 -2 39 -2 55 0 15 2 2 4 -28 4 -30 0 -43 -2 -27 -4z"/>
<path d="M10 425 l0 -205 1185 0 1185 0 0 205 0 205 -1185 0 -1185 0 0 -205z
m198 -7 c-2 -66 -6 -83 -18 -83 -12 0 -16 17 -18 83 -3 77 -2 82 18 82 20 0
21 -5 18 -82z m127 42 c25 -55 31 -56 32 -8 2 47 6 53 28 44 13 -5 16 -19 14
-73 -3 -86 -6 -93 -35 -93 -13 0 -24 6 -24 13 0 6 -9 23 -20 37 l-20 25 0 -33
c0 -36 -26 -55 -41 -31 -10 16 -12 142 -2 152 3 4 16 7 28 7 16 0 27 -11 40
-40z m245 25 c0 -9 -9 -15 -25 -15 -24 0 -25 -2 -25 -70 0 -54 -3 -70 -14 -70
-22 0 -27 13 -27 75 -1 50 -4 57 -26 66 -40 15 -16 29 53 29 50 0 64 -3 64
-15z m134 0 c-4 -9 -19 -15 -35 -15 -19 0 -29 -5 -29 -15 0 -10 10 -15 30 -15
20 0 30 -5 30 -15 0 -10 -10 -15 -30 -15 -25 0 -30 -4 -30 -24 0 -21 6 -25 33
-28 49 -5 33 -23 -20 -23 l-48 0 -3 83 -3 82 55 0 c45 0 54 -3 50 -15z m154 3
c14 -14 16 -78 2 -78 -5 0 -1 -15 10 -34 16 -30 17 -35 4 -40 -27 -11 -33 -7
-50 32 -14 33 -17 35 -24 17 -4 -11 -5 -26 -3 -32 7 -18 -27 -29 -38 -12 -10
16 -12 142 -2 152 11 12 88 8 101 -5z m128 -16 c16 -33 36 -52 34 -32 -6 45 0
61 23 58 21 -3 22 -8 22 -83 0 -78 -1 -80 -24 -80 -13 0 -28 7 -32 15 -5 8
-18 31 -30 50 l-21 35 5 -47 c3 -35 1 -48 -10 -52 -27 -11 -33 5 -33 85 l0 80
27 -3 c17 -2 32 -12 39 -26z m224 -4 c7 -18 19 -48 27 -66 8 -18 13 -40 11
-49 -5 -27 -27 -26 -38 1 -14 37 -70 33 -70 -6 0 -13 -6 -18 -17 -16 -20 4
-31 48 -13 48 7 0 10 8 7 20 -3 11 -2 20 2 20 4 0 14 18 21 40 17 52 51 56 70
8z m203 17 c-1 -5 -11 -11 -23 -13 -21 -4 -23 -10 -20 -84 1 -39 -2 -47 -20
-53 -12 -4 -24 -4 -27 -2 -3 3 -5 35 -6 71 -1 57 -3 65 -21 68 -10 2 -21 9
-24 16 -3 10 13 12 70 10 42 -2 72 -7 71 -13z m78 8 c4 -59 4 -146 -2 -154 -4
-7 -14 -9 -23 -6 -13 5 -16 22 -16 87 0 73 2 80 20 80 11 0 20 -3 21 -7z m183
-12 c9 -10 18 -37 21 -61 5 -56 -26 -90 -83 -90 -58 0 -78 28 -74 102 4 59 96
93 136 49z m131 -12 c18 -34 23 -34 28 2 3 16 11 24 23 24 17 0 19 -8 19 -78
0 -43 -3 -81 -7 -83 -18 -11 -45 8 -64 44 l-19 37 -3 -43 c-3 -34 -7 -43 -20
-40 -14 3 -18 17 -20 72 -2 38 -1 75 2 83 10 24 45 14 61 -18z m241 -43 c27
-77 29 -96 13 -96 -16 0 -59 36 -52 44 3 3 -3 6 -15 6 -15 0 -22 -6 -22 -19 0
-21 -29 -36 -43 -22 -10 10 2 56 30 124 13 31 21 37 41 35 20 -2 28 -15 48
-72z m104 4 l0 -70 30 0 c20 0 30 -5 30 -15 0 -11 -12 -15 -50 -15 l-50 0 0
85 c0 78 2 85 20 85 18 0 20 -7 20 -70z"/>
<path d="M805 445 c0 -28 19 -34 29 -9 7 19 0 34 -17 34 -7 0 -12 -11 -12 -25z"/>
<path d="M1602 453 c-13 -25 -3 -80 15 -88 36 -13 49 27 34 103 -3 10 -42 -2
-49 -15z"/>
<path d="M1996 425 c-3 -8 -1 -15 4 -15 6 0 10 7 10 15 0 8 -2 15 -4 15 -2 0
-6 -7 -10 -15z"/>
<path d="M833 193 c196 -2 518 -2 715 0 196 1 35 2 -358 2 -393 0 -554 -1
-357 -2z"/>
<path d="M882 133 c170 -2 446 -2 615 0 170 1 31 2 -307 2 -338 0 -477 -1
-308 -2z"/>
<path d="M948 73 c134 -2 350 -2 480 0 130 1 21 2 -243 2 -264 0 -371 -1 -237
-2z"/>
<path d="M1042 13 c82 -2 214 -2 295 0 82 1 15 3 -147 3 -162 0 -229 -2 -148
-3z"/>
</g>
</svg>
